<svg xmlns="http://www.w3.org/2000/svg" viewBox="128.87 83.23 700.01 827.56">
  <rect x="128.87" y="83.23" width="700.01" height="492" fill="#ffffff" />
  
  <path fill="#002a5c" d="M828.87 575.25h-90.89a.5.48 90 0 1-.48-.5v-118q0-1-.72-.49l-26.53 19.03q-1.92.48-4.58 2.37-21.31 15.07-42.32 30.55c-.53.39-.75.93-.81 1.54l-41.04 29.54c-.66-.09-1.27-.14-1.86.28-9.07 6.56-18.23 13.1-27.13 19.85-14.46 10.97-29.74 20.88-44.17 31.93q-.53.4-.8 1.4l-53.79 38.77q-8.59 4.53-16.29 10.48L220.48 456.39q-.75-.54-.75.36l.01 118a.58.5 0 0 1-.58.5h-90.87l-.03-555.26a.49.49-.6 0 1 .49-.49h699a1.01.92 0 0 1 1.01.92q-.04 218.49-.1 435.64-.01 59.6.21 119.19ZM274.75 119.29q-1.47.17-2.44 1.78-12.96 21.34-17.07 44.93c-.39 2.26-2.9 11.61-1.45 13l-1.35 20.72a.56.43-88 0 1-.44.53h-38.5a.5.5 0 0 0-.5.5v44.75a.5.5 0 0 0 .5.5h41.25a.5.5 0 0 1 .5.5V347a.5.5 0 0 0 .5.5l62.44.01a.56.51 0 0 0 .56-.51V246.5a.5.5 0 0 1 .5-.5l41.44-.01a.3.23-90 0 0 .23-.3l-.1-45a.44.32-90 0 0-.32-.44h-41.25a.57.41 87.1 0 1-.42-.53c-1.24-19.83-1.58-68.53 28.66-70.23a.56.49-1.9 0 0 .53-.49l-.22-44.25q-.01-1.62 1.2-.5l195.55 179.7a.54.42 43.9 0 1 .1.7l-88.11 82.39q-.5.47.27.47l84.69-.01a1.27.4-47.8 0 0 .79-.46l44.52-41.48a.65.61 44.2 0 1 .86.02l97.66 89.84a3.38 2.99-21.3 0 0 2.17.8l80.5-.11q.81 0 .2-.56L629.91 268.59a1.22 1.17 44.3 0 1-.06-1.74l68.55-65.95q.68-.65-.15-.65H615a1.77 1.21-58.2 0 0-1.04.46l-28.8 25.69a.6.59 45.4 0 1-.8-.01L430.68 83.57a1.43 1.31-22.3 0 0-.92-.34q-39.36-.05-78.56.1-13.52.05-19.96.99-35.23 5.16-56.49 34.97Zm169.76 81.35a.26.26 0 0 0-.26-.26h-62.74a.26.26 0 0 0-.26.26v146.7a.26.26 0 0 0 .26.26h62.74a.26.26 0 0 0 .26-.26v-146.7Zm187.12 179.18a41.98 17.52 0 0 0-41.98-17.52 41.98 17.52 0 0 0-41.98 17.52 41.98 17.52 0 0 0 41.98 17.52 41.98 17.52 0 0 0 41.98-17.52Zm-377.88 16.97q-.08.3.05.6a.82.68-9.3 0 0 .7.41l15.25.18a1.73.83 12.9 0 0 .96-.22q3.88-2.7 6.93-6.4 1.41-1.71 3.82-1.68 10.43.13 19.33.35 1.24.03 2.87.39 1.42.32 2.89.49l4.9 5.48a1.07 1.07 69.1 0 0 .8.36l25.26.01q1.22 0 .25-1.02l-30.71-32.29A1.5 1.44 66.9 0 0 306 363h-20.25a1.39.96-59.7 0 0-.85.4l-33.31 32.69q-.49.49.1.53l2.06.17Zm103.07-9.54c5.29 10.98 34.55 10.33 44.5 9.61 9.1-.66 27.87-2 27.92-14.86q.05-9.21-.03-18.46a.54.46 90 0 0-.46-.54H408a.53.48-90 0 0-.48.53q.07 8.16-.18 16.31c-.35 10.97-12.03 11.63-20.09 9.43-4.12-1.12-5.9-3.63-5.94-7.79q-.09-11.95 0-17.87a.6.56-89.5 0 0-.56-.61H356.5a.63.39-88.6 0 0-.4.61c-.11 5.35-1.37 19.32.72 23.64Zm120.89-17.43.2 26.3a.63.59 90 0 0 .59.63h24.25a.57.56-.5 0 0 .57-.57l-.05-26.18a.75.73-90 0 1 .73-.75h23a.51.51-89.4 0 0 .51-.5l.04-5.19a.56.55 90 0 0-.55-.56h-72.75a.75.5 0 0 0-.75.5l-.01 5.25a.76.5 0 0 0 .76.5h23a.57.46-90 0 1 .46.57Z"/><path fill="#002a5c" d="M583.27 389.42c-11.43-2.3-12.4-16.11-.85-18.99q8.55-2.13 16.57.71c6.06 2.16 7.77 9.03 4.29 14.08-3.89 5.63-14.01 5.41-20.01 4.2Zm-282.71-6.06-16.56.07q-.79 0-.36-.53l8.68-11.08a.51.51 47.1 0 1 .82.03l7.5 11q.34.5-.08.51Z"/><path fill="#ee144e" d="M477.46 642q.94.37.06 1.55-6.92 5.14-14.59 10.68-120.51 86.96-242.29 174.88-.89.64-.89-.36v-118a.5.5 0 0 0-.5-.5l-90.98-.4q-.58-67.43.02-134.6h90.87a.58.5 0 0 0 .58-.5l-.01-118q0-.9.75-.36L477.46 642Z"/><path fill="#fff300" d="m828.87 575.25.01 135h-90.9a.5.48-90 0 0-.48.5v118.44q0 1.41-.95.26-1.17-1.41-2.8-2.24L668 779.71l-5.75-4-183.03-132.24a.83.83 44.9 0 1 0-1.34l14.53-10.61 53.79-38.77 73.96-53.46 41.04-29.54 47.71-34.46 26.53-19.03q.72-.51.72.49v118a.5.48 90 0 0 .48.5h90.89Z"/><path fill="#002a5c" d="M477.52 643.55q40.43 29.11 80.81 58.4 29.89 21.68 60.01 43.05c13.96 9.91 28.31 20.8 42.81 30.78a.82.42 39.2 0 0 .74.16l.36-.23 5.75 4c-.44.38-.37.83.09 1.17q31.81 23.48 63.94 46.52a.83.59-38.1 0 0 .79-.04q.4-.23.93-.15 1.63.83 2.8 2.24.95 1.15.95-.26V710.75a.5.48-90 0 1 .48-.5h90.9l-.18 199.24a.51.45-90 0 1-.45.51h-699.5a.5.49 90 0 1-.49-.5l.01-199.65 90.98.4a.5.5 0 0 1 .5.5v118q0 1 .89.36 121.78-87.92 242.29-174.88 7.67-5.54 14.59-10.68Z"/></svg>
