<!--?xml version="1.0" encoding="utf-8"?-->
<!-- Generator: Adobe Illustrator 25.0.1, SVG Export Plug-In . SVG Version: 6.00 Build 0)  -->
<svg version="1.1" id="Ebene_1" xmlns="http://www.w3.org/2000/svg" xmlns:xlink="http://www.w3.org/1999/xlink" x="0px" y="0px" width="100%" height="100%" viewBox="0 0 600.9 232.4" style="enable-background:new 0 0 600.9 232.4;" xml:space="preserve">
<polygon style="fill-rule: evenodd; clip-rule: evenodd; fill: rgb(173, 11, 4);" points="7.9,113.6 5.1,113.6 0.7,112.7 0.2,109.9 0,99.6 
	4.6,95.6 16.9,87.5 26.8,82.5 37.2,78.3 50.6,73.5 63.5,68.7 75.9,64.6 84.4,61.7 90.1,60.4 96.7,59.3 106.4,58.2 119.4,57.1 
	138.7,54.7 157.9,52.5 176.1,51.2 185.3,49.9 191.1,49 213.1,38.3 244.3,23 276.2,7.9 281,5.3 285.4,3.9 290.4,2.4 297,1.8 312.7,0 
	329.8,-0.9 348.7,-0.9 363.4,-0.7 376.4,2 402.4,7.9 431.6,16.2 450.3,24.1 457.8,28.7 471.4,36.8 496.7,48.8 511.6,54.7 
	523.3,58.6 538.9,63.5 556.9,69.6 564.8,73.5 573.2,78.3 580.7,82.1 584.4,83.2 587.7,81.6 592.3,81 596.1,81.2 598.5,83.6 
	599.1,86.4 598.9,90.8 597.4,93.9 596.1,96.5 598.9,99.4 599.6,102 599.4,106.1 599.6,110.5 599.1,113.8 597.2,114.2 593.4,113.6 
	591,111.6 583.1,105.3 580.9,103.1 580,98.9 577.2,95.4 574.1,95.8 571.2,94.5 559.8,87.8 542,79.7 520.6,73.7 505.3,69.4 
	486.6,62.1 465.2,52.1 452.3,43.8 439.7,36.5 424.6,29.8 404.8,23.4 384.5,18.4 361.9,14.2 345.9,13.1 329.4,13.1 312.9,15.3 
	301,16.2 292,18.4 285.8,20.6 274,26 210,57.8 202.7,61.3 196.3,62.8 188.6,63.9 153.7,67.6 121.8,70.7 100.7,73.3 93,74.6 
	86.8,76.2 71.7,81.2 51,88 36.9,93 28.1,96.9 19.8,102.2 14.3,107.2 11,110.7 " class="svg-elem-1"></polygon>
<g>
	<path style="fill: rgb(255, 255, 255);" d="M111.6,121.2v15.5H20.2c-1.1,0-1.8,0.4-2.2,1.1c-0.4,0.7-0.6,1.6-0.6,2.8v21.4
		c0,1.2,0.2,2.1,0.7,2.8c0.5,0.7,1.1,1.1,1.9,1.1h72.6c0.8,0,1.5-0.3,2.1-1.1c0.6-0.7,0.9-1.6,0.9-2.8v-0.7
		c-0.2-0.9-0.5-1.5-0.9-1.8c-0.4-0.3-1.1-0.4-2-0.4H41.4v-15.6H98c1.8,0,3.5,0.3,5.2,1c1.7,0.7,3.1,1.6,4.3,2.8
		c1.2,1.2,2.2,2.7,3,4.5c0.7,1.7,1.1,3.7,1.1,5.8v9.8c0,2.2-0.4,4.2-1.2,5.9c-0.8,1.7-1.8,3.2-3.1,4.4c-1.3,1.2-2.7,2.1-4.4,2.7
		c-1.7,0.6-3.3,0.9-5.1,0.9H15c-1.7,0-3.4-0.3-5.1-0.9c-1.7-0.6-3.1-1.5-4.4-2.7c-1.3-1.2-2.3-2.7-3-4.4s-1.1-3.7-1.1-5.9v-32.1
		c0-2.2,0.4-4.2,1.1-5.9c0.7-1.7,1.8-3.2,3-4.4c1.3-1.2,2.7-2.1,4.4-2.7c1.7-0.6,3.3-0.9,5.1-0.9H111.6z" class="svg-elem-2"></path>
	<path style="fill: rgb(255, 255, 255);" d="M220.5,120.4c1.7,0,3.4,0.3,5.1,1c1.7,0.7,3.1,1.6,4.4,2.8c1.3,1.2,2.3,2.7,3.1,4.5
		c0.8,1.7,1.2,3.7,1.2,5.8v32.6c0,2.2-0.4,4.2-1.2,6c-0.8,1.8-1.8,3.3-3.1,4.5c-1.3,1.2-2.7,2.1-4.4,2.7c-1.7,0.6-3.3,0.9-5.1,0.9
		h-82.9c-1.7,0-3.4-0.3-5.1-0.9c-1.7-0.6-3.1-1.5-4.4-2.7c-1.3-1.2-2.3-2.7-3-4.5c-0.7-1.8-1.1-3.8-1.1-6v-32.6c0-2.2,0.4-4.2,1.1-6
		c0.7-1.8,1.8-3.3,3-4.5c1.3-1.2,2.7-2.1,4.4-2.7c1.7-0.6,3.3-0.9,5.1-0.9H220.5z M215.1,165.5c0.8,0,1.5-0.4,2.1-1.1
		c0.6-0.7,0.9-1.6,0.9-2.8v-21.8c0-1.2-0.2-2.1-0.7-2.7c-0.5-0.7-1.2-1-2.2-1h-72.5c-1.1,0-1.8,0.3-2.2,1c-0.4,0.7-0.6,1.6-0.6,2.7
		v21.8c0,1.2,0.2,2.1,0.7,2.8c0.5,0.7,1.1,1.1,1.9,1.1H215.1z M172.9,116.6h-16v-15.7h16V116.6z M185.2,100.9h16v15.7h-16V100.9z" class="svg-elem-3"></path>
	<path style="fill: rgb(255, 255, 255);" d="M246.6,181.2v-60.1h16v22.2h68.9l9.7-22.2h16.5l-12.3,30l12.3,30.1h-16.5l-9.7-22.3h-68.9v22.3
		H246.6z" class="svg-elem-4"></path>
	<path style="fill: rgb(255, 255, 255);" d="M459.3,165.8c0.8,0,1.5-0.2,2.1-0.7c0.6-0.5,0.9-1.2,0.9-2.3v-1.1c0-1.1-0.2-1.8-0.7-2.2
		c-0.5-0.4-1.2-0.6-2.2-0.6h-77.8c-1.8,0-3.5-0.3-5.1-0.9c-1.6-0.6-3-1.5-4.3-2.7c-1.2-1.2-2.2-2.7-3-4.4c-0.7-1.7-1.1-3.7-1.1-5.9
		v-9.8c0-2.2,0.4-4.2,1.1-5.9c0.7-1.7,1.7-3.2,3-4.4c1.2-1.2,2.7-2.1,4.3-2.7c1.6-0.6,3.3-0.9,5.1-0.9h96.7v15.5h-91.4
		c-0.9,0-1.6,0.2-2.1,0.6c-0.5,0.4-0.7,1.1-0.7,2.2v1.1c0,1.1,0.3,1.8,0.9,2.2c0.6,0.4,1.3,0.6,2.1,0.6h77.7c1.8,0,3.5,0.3,5.2,1
		c1.7,0.7,3.1,1.6,4.3,2.8c1.2,1.2,2.2,2.7,3,4.5c0.7,1.7,1.1,3.7,1.1,5.8v9.8c0,2.2-0.4,4.2-1.1,5.9c-0.7,1.7-1.7,3.2-3,4.4
		c-1.2,1.2-2.7,2.1-4.3,2.7c-1.7,0.6-3.4,0.9-5.2,0.9h-96.6v-15.5H459.3z" class="svg-elem-5"></path>
	<path style="fill: rgb(255, 255, 255);" d="M584.8,165.8v-44.6h16.1v60.1h-96.6c-1.7,0-3.4-0.3-5.1-0.9c-1.7-0.6-3.1-1.5-4.4-2.7
		c-1.3-1.2-2.3-2.7-3-4.4c-0.7-1.7-1.1-3.7-1.1-5.9v-46.1h16v40.7c0,1.2,0.2,2.1,0.7,2.8c0.5,0.7,1.1,1.1,1.9,1.1H584.8z" class="svg-elem-6"></path>
</g>
</svg>
