<svg xmlns="http://www.w3.org/2000/svg" xmlns:xlink="http://www.w3.org/1999/xlink" width="55px" height="60px" viewBox="0 0 55 60" version="1.1" class="lazyloaded">
    <title>Mitsubishi Motors Logo</title>

    <defs>
        <polygon id="path-1" points="0.020754717 7.51789474 0.020754717 0.145263158 7.65676101 0.145263158 7.65676101 7.51789474 0.020754717 7.51789474"></polygon>
    </defs>
    <g id="Symbols" stroke="none" stroke-width="1" fill="none" fill-rule="evenodd">
        <g id="NEW-CORPORATE-LOGO">
            <g id="New_Corporate_mark_vertical_1709">
                <g id="Group-3" transform="translate(0.000000, 42.456140)">
                    <mask id="mask-2" fill="white">
                        <use xlink:href="#path-1"></use>
                    </mask>
                    <g id="Clip-2"></g>
                </g>
                <path d="M9.03971698,49.9740351 L9.03971698,42.6014035 L10.6672327,42.6014035 L10.6672327,49.9740351 L9.03971698,49.9740351 Z M13.3390566,44.1382456 L11.3739308,44.1382456 L11.3739308,42.6014035 L16.9420755,42.6014035 L16.9420755,44.1382456 L14.9769497,44.1382456 L14.9769497,49.9740351 L13.3390566,49.9740351 L13.3390566,44.1382456 Z M17.5470755,49.8803509 L17.5470755,48.3435088 C17.8846855,48.4063158 18.7034591,48.5512281 19.7069497,48.5512281 C20.546478,48.5512281 20.9660692,48.437193 20.9660692,47.9698246 C20.9660692,47.4298246 20.6073585,47.357193 19.430566,46.8066667 C18.2838679,46.277193 17.4339623,45.8098246 17.4339623,44.5638596 C17.4339623,43.0273684 18.3554717,42.4975439 20.1777358,42.4975439 C21.1092767,42.4975439 21.7848428,42.5807018 22.204434,42.6326316 L22.204434,44.1691228 C21.7952201,44.1277193 21.0480503,44.0238596 20.2182075,44.0238596 C19.2358176,44.0238596 19.0414151,44.1277193 19.0414151,44.5329825 C19.0414151,44.9480702 19.5737736,45.1557895 20.3724843,45.5192982 C21.5700314,46.0698246 22.5524214,46.5263158 22.5524214,47.9280702 C22.5524214,49.3922807 21.6520126,50.0778947 19.7069497,50.0778947 C18.9393711,50.0778947 18.2226415,49.994386 17.5470755,49.8803509 Z M23.5254717,47.4821053 L23.5254717,42.6014035 L25.1536792,42.6014035 L25.1536792,47.4192982 C25.1536792,48.2603509 25.6448742,48.5512281 26.4224843,48.5512281 C27.2007862,48.5512281 27.7020126,48.2603509 27.7020126,47.4192982 L27.7020126,42.6014035 L29.3295283,42.6014035 L29.3295283,47.4821053 C29.3295283,49.2677193 28.1727987,50.0778947 26.4224843,50.0778947 C24.6718239,50.0778947 23.5254717,49.2677193 23.5254717,47.4821053 Z M30.7225157,42.6014035 L33.8959119,42.6014035 C35.3802201,42.6014035 36.1989937,43.1515789 36.1989937,44.5014035 C36.1989937,45.5712281 35.5950314,45.9031579 35.0426101,46.1217544 C35.6977673,46.3189474 36.3837107,46.6824561 36.3837107,47.9178947 C36.3837107,49.2052632 35.6161321,49.9740351 34.0086792,49.9740351 L30.7225157,49.9740351 L30.7225157,42.6014035 Z M33.7731132,48.5824561 C34.4282704,48.5824561 34.6946226,48.3435088 34.6946226,47.7 C34.6946226,47.1287719 34.4486792,46.8898246 33.844717,46.8898246 L32.3500314,46.8898246 L32.3500314,48.5824561 L33.7731132,48.5824561 Z M33.6610377,45.5814035 C34.3155031,45.5814035 34.5514151,45.2287719 34.5514151,44.7403509 C34.5514151,44.1484211 34.2643082,43.9929825 33.6610377,43.9929825 L32.3500314,43.9929825 L32.3500314,45.5814035 L33.6610377,45.5814035 Z M37.3664465,49.9740351 L37.3664465,42.6014035 L38.9946541,42.6014035 L38.9946541,49.9740351 L37.3664465,49.9740351 Z M40.1818239,49.8803509 L40.1818239,48.3435088 C40.5197799,48.4063158 41.3392453,48.5512281 42.3416981,48.5512281 C43.1815723,48.5512281 43.6011635,48.437193 43.6011635,47.9698246 C43.6011635,47.4298246 43.2431447,47.357193 42.0653145,46.8066667 C40.9189623,46.277193 40.0690566,45.8098246 40.0690566,44.5638596 C40.0690566,43.0273684 40.990566,42.4975439 42.8128302,42.4975439 C43.7443711,42.4975439 44.4199371,42.5807018 44.8395283,42.6326316 L44.8395283,44.1691228 C44.4299686,44.1277193 43.6827987,44.0238596 42.8539937,44.0238596 C41.8709119,44.0238596 41.6761635,44.1277193 41.6761635,44.5329825 C41.6761635,44.9480702 42.2092138,45.1557895 43.0072327,45.5192982 C44.2051258,46.0698246 45.1882075,46.5263158 45.1882075,47.9280702 C45.1882075,49.3922807 44.286761,50.0778947 42.3416981,50.0778947 C41.5744654,50.0778947 40.8573899,49.994386 40.1818239,49.8803509 Z M51.8937107,42.6014035 L51.8937107,49.9740351 L50.2658491,49.9740351 L50.2658491,47.045614 L47.6856918,47.045614 L47.6856918,49.9740351 L46.0581761,49.9740351 L46.0581761,42.6014035 L47.6856918,42.6014035 L47.6856918,45.5087719 L50.2658491,45.5087719 L50.2658491,42.6014035 L51.8937107,42.6014035 Z M53.2251258,49.9740351 L53.2251258,42.6014035 L54.8526415,42.6014035 L54.8526415,49.9740351 L53.2251258,49.9740351 Z M15.2889623,52.5235088 L15.2889623,59.8961404 L13.6507233,59.8961404 L13.6507233,54.714386 L11.4604088,58.4217544 L9.25937107,54.714386 L9.25937107,59.8961404 L7.63150943,59.8961404 L7.63150943,52.5235088 L9.74018868,52.5235088 L11.4604088,55.5242105 L13.1391195,52.5235088 L15.2889623,52.5235088 Z M16.4052201,56.2098246 C16.4052201,53.5722807 17.3983333,52.4196491 19.5377987,52.4196491 C21.6776101,52.4196491 22.6700314,53.5722807 22.6700314,56.2098246 C22.6700314,58.8473684 21.6776101,60 19.5377987,60 C17.3983333,60 16.4052201,58.8473684 16.4052201,56.2098246 Z M20.9809434,56.2098246 C20.9809434,54.7038596 20.7249686,53.9463158 19.5377987,53.9463158 C18.350283,53.9463158 18.0943082,54.7038596 18.0943082,56.2098246 C18.0943082,57.725614 18.350283,58.4940351 19.5377987,58.4940351 C20.7249686,58.4940351 20.9809434,57.725614 20.9809434,56.2098246 Z M24.9022013,54.0603509 L22.9370755,54.0603509 L22.9370755,52.5235088 L28.5059119,52.5235088 L28.5059119,54.0603509 L26.5400943,54.0603509 L26.5400943,59.8961404 L24.9022013,59.8961404 L24.9022013,54.0603509 Z M28.7722642,56.2098246 C28.7722642,53.5722807 29.7653774,52.4196491 31.9048428,52.4196491 C34.0446541,52.4196491 35.0370755,53.5722807 35.0370755,56.2098246 C35.0370755,58.8473684 34.0446541,60 31.9048428,60 C29.7653774,60 28.7722642,58.8473684 28.7722642,56.2098246 Z M33.3479874,56.2098246 C33.3479874,54.7038596 33.0927044,53.9463158 31.9048428,53.9463158 C30.717327,53.9463158 30.4613522,54.7038596 30.4613522,56.2098246 C30.4613522,57.725614 30.717327,58.4940351 31.9048428,58.4940351 C33.0927044,58.4940351 33.3479874,57.725614 33.3479874,56.2098246 Z M36.1640566,52.5235088 L39.1122642,52.5235088 C40.6681761,52.5235088 41.6612893,53.1154386 41.6612893,54.8908772 C41.6612893,56.0329825 41.0981447,56.7708772 40.1669497,56.9989474 L41.9580818,59.8961404 L40.0541824,59.8961404 L38.5186792,57.2582456 L37.7915723,57.2582456 L37.7915723,59.8961404 L36.1640566,59.8961404 L36.1640566,52.5235088 Z M39.0095283,55.8252632 C39.7466667,55.8252632 39.9718553,55.4519298 39.9718553,54.8908772 C39.9718553,54.3196491 39.7466667,53.9463158 39.0095283,53.9463158 L37.7915723,53.9463158 L37.7915723,55.8252632 L39.0095283,55.8252632 Z M42.6343396,59.8024561 L42.6343396,58.265614 C42.9722956,58.3280702 43.7910692,58.4733333 44.7942138,58.4733333 C45.6333962,58.4733333 46.0529874,58.3589474 46.0529874,57.8919298 C46.0529874,57.3519298 45.6949686,57.2792982 44.5178302,56.7287719 C43.371478,56.1992982 42.5215723,55.7319298 42.5215723,54.4859649 C42.5215723,52.9491228 43.4430818,52.4196491 45.265,52.4196491 C46.1968868,52.4196491 46.8724528,52.502807 47.292044,52.554386 L47.292044,54.0912281 C46.8824843,54.0498246 46.1353145,53.9463158 45.3065094,53.9463158 C44.3234277,53.9463158 44.1286792,54.0498246 44.1286792,54.4547368 C44.1286792,54.8701754 44.6610377,55.0778947 45.4597484,55.4417544 C46.6569497,55.9915789 47.6400314,56.4487719 47.6400314,57.8505263 C47.6400314,59.314386 46.7392767,59.9996491 44.7942138,59.9996491 C44.0259434,59.9996491 43.3099057,59.9168421 42.6343396,59.8024561 Z M7.65676101,42.6014035 L7.65676101,49.9740351 L6.01886792,49.9740351 L6.01886792,44.7922807 L3.82786164,48.4992982 L1.62751572,44.7922807 L1.62751572,49.9740351 L-3.55271368e-15,49.9740351 L-3.55271368e-15,42.6014035 L2.10867925,42.6014035 L3.82786164,45.6024561 L5.50691824,42.6014035 L7.65676101,42.6014035 Z" id="Combined-Shape" fill="#000000"></path>
                <path d="M20.3859748,12.5719298 L27.3481447,0.34 L34.3099686,12.5719298 L27.3481447,24.8038596 L20.3859748,12.5719298 Z M41.2721384,24.8038596 L48.2343082,37.0364912 L34.3099686,37.0364912 L27.3481447,24.8042105 L41.2721384,24.8038596 Z M13.4231132,24.8038596 L27.3481447,24.8042105 L20.3859748,37.0364912 L6.4609434,37.0364912 L13.4231132,24.8038596 Z" id="Combined-Shape" fill="#ED0000"></path>
            </g>
        </g>
    </g>
</svg>