<?xml version="1.0" encoding="UTF-8"?>
<!-- Generator: Adobe Illustrator 16.0.0, SVG Export Plug-In . SVG Version: 6.00 Build 0)  -->
<!DOCTYPE svg PUBLIC "-//W3C//DTD SVG 1.1//EN" "http://www.w3.org/Graphics/SVG/1.1/DTD/svg11.dtd">
<svg version="1.1" id="Ebene_1" focusable="false" xmlns="http://www.w3.org/2000/svg" xmlns:xlink="http://www.w3.org/1999/xlink" x="0px" y="0px" width="1083.2px" height="566.9px" viewBox="0 0 1083.2 566.9" enable-background="new 0 0 1083.2 566.9" xml:space="preserve">
<g>
	<g>
		<g>
			<path fill="#004533" d="M223.3,254.4v-151h35.9v58.9h47.7l62-58.9h47.7l-78.8,75.2l80.2,76h-50.6l-61.8-59.7h-46.3v59.6H223.3z      M76.5,134.8l-20.6-31.4h124.3l-20.1,31.4H76.5L76.5,134.8z M934.5,195.9h72.5l-36.3-64.2L934.5,195.9z M861.3,254.4l84.8-151.2     h50.1l84.8,151.2H1040l-14.6-25.9h-72.2l-19.5-30.9l-32,56.8H861.3z M562.7,254.4h-77.4c-36.6,0-57.8-21.2-57.8-56.2v-38.6     c0-35.2,21.2-56.2,57.8-56.2h77.4c36.6,0,57.8,21.2,57.8,56.2v38.6C620.3,233.4,599.2,254.4,562.7,254.4 M486.1,221.9h75.7     c13.7,0,22.6-8.6,22.6-22v-42.1c0-13.5-8.8-22-22.6-22h-75.7c-13.7,0-22.6,8.6-22.6,22v42.1C463.6,213.3,472.4,221.9,486.1,221.9      M660.6,254.4v-151h126.6c37.7,0,59.5,21.7,59.5,57.8v35.8c0,36-21.7,57.8-59.5,57.8H660.6V254.4z M696.5,221.9h89.8     c14.9,0,24.3-9.1,24.3-23.4v-39.1c0-14.3-9.4-23.4-24.3-23.4h-89.8V221.9z M1.3,254.4l20.1-32h116c6.6,0,10.8-4.3,10.8-10.8     v-18.5H48.4c-29.7,0-42.9-13.2-42.9-42.4v-12.6c0-21.7,12.9-34.9,33.1-34.9h2.2V150c0,6.6,4.2,10.8,10.8,10.8h96.6     c22,0,35.2,13.2,35.2,34.6V212c0,28.3-14,42.4-42.9,42.4H1.3z"/>
		</g>
		<g>
			<path fill="#004533" d="M2.4,449l9.4-11.1c11.5,11.4,27.6,18.7,45.9,18.7c25.1,0,36.5-10.9,36.5-27.2c0-15.1-9-22.9-35.2-28.9     l-12.1-2.9c-19.2-4.5-41.5-15.8-41.5-41.8c0-21.6,17.8-41,50.3-41c21,0,37.7,6.6,51.5,18.2L97.1,344     c-10.9-9.3-26.1-14.7-40.7-14.7c-23.6,0-34.6,11.2-34.6,25.7c0,17,12.6,24.3,36.5,29.6l12.2,2.9c25.9,6,40.1,19.8,40.1,41     c0,24-18.2,42.4-52.9,42.4C35.7,470.9,16.2,462.8,2.4,449"/>
		</g>
		<g>
			<path fill="#004533" d="M139.2,405.1h65.4c-1.7-20.6-14.6-32.4-32-32.4C154.6,372.8,142.1,385.7,139.2,405.1 M138.5,417.8     c0,23.6,15.6,39.8,36.6,39.8c13.5,0,24.4-5.3,32.4-15.7l9.8,8.4c-8,11.4-22.7,20.6-42.6,20.6c-32.4,0-51.6-24.7-51.6-55.7     c0-30,18.7-55.7,49.9-55.7c30.9,0,46.3,23.3,46.3,50.3v6.9h-80.8V417.8z"/>
		</g>
	</g>
	<g>
		<g>
			<path fill="#004533" d="M296,364.6l-6,10.9c-2.9-2-7.7-2.8-12.9-2.8c-12.6,0-20.3,5.2-25.1,12.6v82.9h-15.1V362h9.3l5.3,9.7     c5.2-7.7,15-12.2,25.9-12.2C285.4,359.4,292.2,361.8,296,364.6"/>
		</g>
	</g>
	<polygon fill="#004533" points="406.3,362.1 359.2,469 350.4,469 303.3,362.1 318.7,362.1 354.9,446.2 390.9,362.1  "/>
	<path fill="#004533" d="M417.6,362.1h15.1v106.3h-15.1V362.1z M417.3,320h15.4v15.7h-15.4V320z"/>
	<g>
		<g>
			<path fill="#004533" d="M449.8,415.2c0-33.4,21.9-55.7,51.2-55.7c17,0,28.9,5.7,39,16.1l-8.8,10.9c-6.9-7.7-16.3-12.9-30.2-12.9     c-21.2,0-35.8,16.3-35.8,41.5c0,25.5,17,41,36.6,41c10.9,0,21.5-3.6,29.3-11.1l7.9,10.1c-10.1,9.8-23.1,15.3-37.3,15.3     C472.9,470.2,449.8,448.6,449.8,415.2"/>
		</g>
		<g>
			<path fill="#004533" d="M559.9,405.1h65.4c-1.7-20.6-14.6-32.4-32-32.4C575.3,372.8,562.8,385.7,559.9,405.1 M559.2,417.8     c0,23.6,15.7,39.8,36.6,39.8c13.5,0,24.4-5.3,32.4-15.7l9.8,8.4c-8,11.4-22.7,20.6-42.6,20.6c-32.4,0-51.6-24.7-51.6-55.7     c0-30,18.7-55.7,49.9-55.7c30.9,0,46.3,23.3,46.3,50.3v6.9h-80.8V417.8L559.2,417.8z"/>
		</g>
	</g>
</g>
</svg>