<svg version="1.1" id="Layer_1" xmlns="http://www.w3.org/2000/svg" xmlns:xlink="http://www.w3.org/1999/xlink" x="0px" y="0px"
	 width="100%" viewBox="0 0 1024 1024" enable-background="new 0 0 1024 1024" xml:space="preserve">
<path fill="#000000" opacity="1.000000" stroke="none" 
	d="
M622.720093,456.210205 
	C620.663330,452.417480 619.631958,448.443756 616.763794,445.695587 
	C614.313110,445.657288 613.885559,447.436981 613.262878,448.924377 
	C596.921570,487.958282 566.100464,507.238373 525.575439,513.498474 
	C517.479858,514.749084 509.409607,515.365417 501.233948,515.358154 
	C457.568481,515.319580 413.902924,515.377563 370.237396,515.385559 
	C362.902893,515.386902 362.884003,515.349243 362.890137,507.839447 
	C362.916992,475.007690 362.911682,442.175812 363.018188,409.344299 
	C363.048523,399.998901 361.639435,391.114319 356.362274,383.147949 
	C352.545959,377.386810 347.679474,372.980530 340.752411,371.542938 
	C338.303680,371.034729 337.354523,370.096558 337.467804,367.598145 
	C337.663879,363.272217 337.848450,358.920502 337.590179,354.606384 
	C337.333618,350.321045 339.534485,349.697571 343.075592,349.710388 
	C362.408081,349.780396 381.741089,349.714233 401.073914,349.684021 
	C408.633148,349.672180 408.652557,349.659393 408.674622,342.339630 
	C408.718292,327.840118 408.795959,313.340393 408.746857,298.841095 
	C408.716339,289.823914 406.523590,287.457886 397.627228,286.155457 
	C395.830261,285.892426 394.062286,285.431519 391.714417,284.944244 
	C391.714417,278.477264 391.709198,272.023132 391.717804,265.568970 
	C391.720184,263.782928 392.565704,262.770599 394.426453,262.740265 
	C395.592529,262.721283 396.758362,262.663055 397.924286,262.663177 
	C435.089996,262.667114 472.263092,262.228088 509.418762,262.843292 
	C533.769714,263.246460 556.982971,269.153656 577.241699,283.396973 
	C598.338379,298.229431 610.831909,319.121185 617.180115,343.763367 
	C618.495300,348.868500 620.689026,350.151367 625.679077,350.077393 
	C644.840881,349.793274 664.010620,350.088074 683.174927,349.904572 
	C687.673523,349.861481 689.612732,351.140991 689.206360,355.851105 
	C688.878174,359.654358 689.151611,363.511261 689.193054,367.344025 
	C689.218811,369.724945 688.215454,371.059357 685.727722,371.301147 
	C673.739319,372.466370 666.523499,383.736542 664.355530,394.124023 
	C663.501465,398.215790 663.263672,402.345520 663.305298,406.527100 
	C663.635620,439.684601 663.922302,472.842560 664.187195,506.000641 
	C664.273132,516.756958 664.599548,515.207214 654.684998,515.297913 
	C649.018982,515.349792 643.348022,515.175903 637.687134,515.352783 
	C634.492310,515.452576 633.318787,514.299988 633.173706,511.070618 
	C632.674194,499.954498 632.496765,488.808258 629.787964,477.888306 
	C627.980042,470.599854 625.731262,463.488617 622.720093,456.210205 
M559.254944,412.302002 
	C556.227051,410.930389 553.238647,409.462158 550.164612,408.203278 
	C533.725891,401.471161 516.591553,400.821899 499.166077,402.235260 
	C486.399384,403.270782 474.373901,406.747375 462.830444,412.151886 
	C460.498810,413.243469 459.273590,414.724243 459.286774,417.509796 
	C459.378113,436.823547 459.379303,456.138184 459.288605,475.451965 
	C459.273773,478.612579 460.302399,480.096863 463.588196,479.925812 
	C478.202667,479.165100 492.880371,480.665619 507.463074,478.740692 
	C536.042175,474.968262 556.950989,460.494873 567.463013,433.376587 
	C573.937927,416.673004 573.002197,420.267975 560.366028,412.857971 
	C560.222473,412.773743 560.074646,412.696838 559.254944,412.302002 
M492.421844,298.344360 
	C483.591339,298.340698 474.754852,298.529358 465.932892,298.252960 
	C461.462250,298.112915 460.205383,299.807739 460.273254,304.087982 
	C460.484589,317.413574 460.543304,330.749207 460.237488,344.071228 
	C460.129028,348.797913 461.747986,350.001099 466.240570,349.977722 
	C496.396484,349.820801 526.553589,349.920593 556.710327,349.888275 
	C568.028015,349.876129 568.963928,348.204193 563.494873,338.000061 
	C548.492249,310.008484 523.705444,299.288727 492.421844,298.344360 
M522.491943,371.423767 
	C504.493805,371.425598 486.495667,371.410309 468.497620,371.453430 
	C466.515625,371.458191 464.514832,371.682220 462.558594,372.015167 
	C460.729095,372.326508 460.275635,373.757233 460.413910,375.420502 
	C460.552795,377.090698 461.661835,377.645874 463.152832,377.693481 
	C464.151794,377.725403 465.152161,377.720917 466.151886,377.720947 
	C499.981659,377.722382 533.811462,377.722992 567.641235,377.720215 
	C568.807434,377.720123 569.973572,377.678467 571.139832,377.666382 
	C572.905823,377.648102 574.002563,376.804779 574.164551,375.023834 
	C574.338196,373.115265 573.159668,372.323578 571.456177,372.161346 
	C570.130920,372.035126 568.796509,371.965668 567.465210,371.949005 
	C552.806030,371.765717 538.146606,371.597717 522.491943,371.423767 
M398.405151,470.845459 
	C396.615021,477.161713 394.729675,483.462799 395.013824,490.152649 
	C403.335815,490.337585 407.979797,487.661133 408.337555,481.208405 
	C408.901703,471.034088 408.487610,460.805542 408.487610,449.453918 
	C403.498260,456.432343 401.014771,463.232574 398.405151,470.845459 
M391.499390,377.625610 
	C395.320465,377.626068 399.141663,377.607971 402.962555,377.634277 
	C405.107880,377.649078 407.190521,377.410370 407.242493,374.686493 
	C407.297516,371.802551 404.909943,372.386017 403.218842,372.371674 
	C395.078827,372.302582 386.937683,372.285889 378.797760,372.353088 
	C377.136566,372.366791 374.666626,371.624725 374.510864,374.389557 
	C374.337677,377.463409 376.800995,377.581512 379.042786,377.601593 
	C382.863586,377.635834 386.684845,377.619934 391.499390,377.625610 
M651.128723,375.167206 
	C651.747620,374.498352 653.005493,374.240387 652.440369,372.331512 
	C644.012573,372.331512 635.428101,372.321320 626.843689,372.342560 
	C625.566284,372.345703 624.546814,372.837341 624.457520,374.315369 
	C624.356689,375.984192 625.358826,376.920441 626.849792,376.864075 
	C634.749878,376.565338 642.773987,378.422363 651.128723,375.167206 
z"/>
<path fill="#000000" opacity="1.000000" stroke="none" 
	d="
M518.709717,593.001160 
	C518.713928,588.004761 518.702087,583.507812 518.733521,579.011230 
	C518.742676,577.699829 518.633545,576.327698 519.957947,575.421692 
	C523.146606,573.240540 535.060181,575.262878 537.344910,578.538574 
	C546.679932,591.922119 555.930359,605.364685 565.265076,618.748413 
	C566.276855,620.199036 566.955505,622.026428 568.909119,622.796936 
	C570.185303,621.156921 569.644775,619.260742 569.615723,617.527893 
	C569.400452,604.715271 570.301697,591.883301 569.051453,579.090942 
	C568.757385,576.082642 569.884033,574.794617 572.925415,574.821411 
	C587.885010,574.953308 585.184021,573.313538 585.303589,586.197021 
	C585.450500,602.017761 585.332397,617.840820 585.345398,633.662903 
	C585.349487,638.654053 585.210754,643.645569 585.977844,648.615417 
	C586.548645,652.313599 585.108459,654.363892 581.051208,654.055908 
	C579.230286,653.917664 577.371582,653.884705 575.560730,654.083496 
	C571.434998,654.536377 568.873779,652.781128 566.546326,649.354797 
	C557.098755,635.446350 547.363586,621.733093 537.711243,607.964233 
	C537.164429,607.184326 536.408813,606.550781 535.571472,605.658447 
	C533.549622,607.677734 534.286926,609.958252 534.480713,611.888916 
	C535.698608,624.027405 534.661194,636.188538 535.059692,648.327515 
	C535.203735,652.714355 533.402039,654.082397 529.156006,654.095398 
	C518.715820,654.127441 518.710205,654.290771 518.707764,643.964966 
	C518.703796,627.143555 518.708801,610.322205 518.709717,593.001160 
z"/>
<path fill="#000000" opacity="1.000000" stroke="none" 
	d="
M685.286987,731.912292 
	C688.746887,732.972839 688.108765,729.897949 688.659607,728.515930 
	C693.156250,717.234070 697.551697,705.907776 701.706970,694.496277 
	C702.993958,690.961975 704.905151,689.663391 708.663330,689.676453 
	C720.292786,689.716858 720.562866,689.546814 721.867737,700.853516 
	C723.028992,710.915405 723.490906,721.057556 724.285828,731.162292 
	C724.885071,738.778259 725.369934,746.407959 726.202637,753.998901 
	C726.674744,758.303040 725.860657,760.873108 720.830566,760.218933 
	C719.355591,760.027100 717.830566,760.091187 716.338257,760.188599 
	C712.952820,760.409851 711.779602,758.916992 711.544861,755.515259 
	C710.767090,744.242188 709.623230,732.994751 708.659180,721.734009 
	C708.531921,720.248108 708.476868,718.789246 706.951233,716.770447 
	C704.578979,722.795105 702.404175,728.267029 700.268738,733.754333 
	C697.372009,741.197937 694.429382,748.625244 691.665466,756.118286 
	C690.636963,758.906616 689.321472,760.460693 685.975220,760.481506 
	C682.413940,760.503662 681.027100,758.776184 679.911133,755.836243 
	C675.541565,744.325012 671.041321,732.863098 666.535706,721.404114 
	C665.959106,719.937744 665.772949,718.160889 663.640381,717.054199 
	C662.862366,725.330139 662.078247,733.357483 661.363403,741.390991 
	C660.921631,746.356384 660.509827,751.326904 660.231750,756.303406 
	C660.081604,758.990723 658.882690,760.277527 656.189636,760.167419 
	C652.591248,760.020325 648.920837,760.705750 645.074280,759.434875 
	C646.026733,747.309937 646.901123,735.412109 647.913879,723.526123 
	C648.745972,713.760071 649.923950,704.020142 650.570251,694.243530 
	C650.804810,690.695618 652.192627,689.785522 655.459106,689.686829 
	C668.109436,689.304932 668.109680,689.219360 672.877014,701.097229 
	C676.965576,711.283813 681.046692,721.473511 685.286987,731.912292 
z"/>
<path fill="#000000" opacity="1.000000" stroke="none" 
	d="
M427.349365,632.952271 
	C427.618530,638.755066 427.853027,644.067932 428.169220,649.375916 
	C428.356781,652.524780 426.989532,654.039734 423.812531,653.975586 
	C421.648590,653.931824 419.465576,653.825134 417.321167,654.042908 
	C413.386383,654.442322 410.892731,652.813721 408.671143,649.554626 
	C399.386902,635.934143 389.867218,622.473938 380.399902,608.978760 
	C379.575470,607.803589 379.030304,606.248352 377.248932,605.952454 
	C375.687958,607.264893 376.384155,609.051514 376.376312,610.605164 
	C376.312561,623.264160 376.209473,635.925415 376.396759,648.581848 
	C376.457062,652.655823 375.161224,654.140259 370.978882,654.111694 
	C360.626678,654.041260 360.650482,654.213318 360.659790,643.968628 
	C360.678864,622.980835 360.799774,601.991577 360.571503,581.006287 
	C360.518829,576.166809 362.138519,575.031799 366.817444,574.671265 
	C373.792969,574.133606 378.089600,576.416382 381.892609,582.365112 
	C389.779663,594.702087 398.482605,606.517822 406.868378,618.535095 
	C407.977264,620.124207 409.193085,621.638794 411.308319,624.448242 
	C411.741943,611.962524 411.905853,601.050476 411.198944,590.121460 
	C410.952118,586.305908 410.859009,582.479797 410.733337,578.657288 
	C410.711823,578.002930 410.627838,577.057312 410.999451,576.728333 
	C415.146332,573.057434 420.127411,575.176514 424.734070,575.048767 
	C427.962189,574.959351 427.311279,577.965820 427.317017,579.990662 
	C427.366730,597.480469 427.347656,614.970398 427.349365,632.952271 
z"/>
<path fill="#000000" opacity="1.000000" stroke="none" 
	d="
M605.690186,614.000000 
	C605.687927,602.334595 605.802307,591.167358 605.620850,580.004883 
	C605.558472,576.164673 606.780457,574.556458 610.759338,574.740417 
	C621.061829,575.216614 631.398682,574.081360 641.694397,575.571106 
	C649.158447,576.651184 655.778931,579.003174 658.747803,586.638489 
	C661.941406,594.851624 660.395203,602.317383 654.209106,608.728394 
	C653.407471,609.559143 652.725403,610.505371 651.924866,611.474426 
	C652.237732,611.945557 652.403748,612.523438 652.755249,612.677002 
	C662.919312,617.117310 664.300415,625.772095 663.170837,635.244385 
	C662.086487,644.337463 656.475281,649.831665 647.773743,652.250854 
	C643.265259,653.504333 638.671631,654.175842 633.970581,654.139282 
	C626.638550,654.082275 619.297241,653.895142 611.976501,654.184570 
	C607.297729,654.369568 605.457947,652.929443 605.594116,647.993530 
	C605.901917,636.836609 605.690857,625.665405 605.690186,614.000000 
M643.230652,623.205872 
	C637.565063,619.340027 631.145081,620.505249 624.912659,620.497925 
	C623.119751,620.495789 622.210815,621.608154 622.204651,623.375610 
	C622.185852,628.778870 622.197815,634.182251 622.197815,639.646545 
	C627.502258,639.646545 632.118347,639.799805 636.719055,639.599121 
	C640.552307,639.431946 643.796814,637.905823 645.547424,634.182739 
	C647.375977,630.293945 646.728821,626.793457 643.230652,623.205872 
M638.030640,589.322876 
	C634.121887,588.223022 630.126526,588.242859 626.133057,588.513062 
	C624.232361,588.641663 622.329102,589.183960 622.244995,591.557190 
	C622.064758,596.645752 621.802856,601.752991 622.512085,606.823181 
	C627.364441,607.470581 631.725830,607.216003 635.940125,606.444275 
	C639.852600,605.727844 643.094299,603.533142 643.702026,599.065918 
	C644.283142,594.793640 643.743530,590.986328 638.030640,589.322876 
z"/>
<path fill="#000000" opacity="1.000000" stroke="none" 
	d="
M110.012482,576.345947 
	C110.590775,575.633179 110.994759,575.134094 111.406357,575.127747 
	C125.661530,574.907227 140.017395,573.409424 153.959503,577.830322 
	C168.194702,582.344299 177.031631,594.263062 177.325668,609.222168 
	C177.443161,615.198303 177.545425,621.166321 176.055115,627.059204 
	C172.441284,641.348999 161.353989,650.880432 145.411926,653.210815 
	C134.818466,654.759399 124.161148,653.915710 113.529808,654.073608 
	C110.369682,654.120483 109.629951,652.410706 109.641335,649.647400 
	C109.741280,625.361572 109.782852,601.075439 110.012482,576.345947 
M126.825951,638.319702 
	C129.880539,641.078979 133.230637,638.825562 136.352875,638.666321 
	C152.750687,637.829895 160.131119,629.950500 160.280441,613.624451 
	C160.401154,600.425720 154.304733,592.485657 142.198166,590.602966 
	C138.442825,590.019043 134.546173,590.400024 130.724503,590.169128 
	C127.470840,589.972595 126.323700,591.332764 126.358757,594.561218 
	C126.514343,608.890747 126.502548,623.222046 126.825951,638.319702 
z"/>
<path fill="#000000" opacity="1.000000" stroke="none" 
	d="
M206.363770,648.782654 
	C192.518433,639.551941 189.277008,625.964233 190.118805,611.006104 
	C190.831024,598.350769 195.441162,587.352539 206.554321,580.007690 
	C220.734726,570.635620 242.751694,571.891724 255.725082,582.748840 
	C266.429260,591.707031 268.210236,603.986267 267.852234,616.710693 
	C267.579102,626.419495 265.778564,635.941711 258.596039,643.449890 
	C245.535995,657.101990 225.459000,659.259277 206.363770,648.782654 
M239.166428,591.205139 
	C222.515594,583.991394 207.764252,593.315796 207.321152,611.358521 
	C207.247589,614.353638 207.223816,617.356628 207.349777,620.348755 
	C207.697769,628.614624 213.578079,636.532898 221.342270,639.337708 
	C229.773041,642.383179 238.966827,640.286011 244.763214,633.995300 
	C255.000809,622.884583 252.345932,600.052063 239.166428,591.205139 
z"/>
<path fill="#000000" opacity="1.000000" stroke="none" 
	d="
M853.803284,650.397583 
	C838.401917,640.944336 833.388733,626.793701 834.826172,610.041077 
	C836.122437,594.934265 843.827881,583.539612 857.797913,577.466919 
	C871.477844,571.520264 885.340942,571.628662 898.413574,579.778442 
	C904.054688,583.295288 904.151489,584.075378 900.462952,589.446472 
	C898.896484,591.727356 897.727539,594.391968 895.369080,595.909607 
	C893.690125,595.893555 892.817688,594.772827 891.786560,593.982483 
	C883.424072,587.572205 874.385071,586.739929 865.090332,591.364685 
	C855.934387,595.920471 852.290039,603.907593 852.299866,613.889343 
	C852.313049,627.256042 857.980042,635.818665 869.264221,638.951233 
	C875.594971,640.708740 881.924133,639.842712 887.838196,637.439697 
	C892.946899,635.363831 890.276184,630.448425 890.477234,626.790710 
	C890.657104,623.518677 887.591370,624.366272 885.592163,624.156494 
	C884.437256,624.035400 883.252319,623.979431 882.100159,624.091614 
	C877.164856,624.572266 875.325684,622.587341 875.574524,617.483948 
	C875.956360,609.654480 875.655701,609.637634 883.599670,609.634644 
	C891.389343,609.631775 899.179016,609.634033 907.219421,609.634033 
	C907.219421,620.147461 907.448486,630.077332 907.107666,639.987610 
	C906.969604,644.002075 903.273743,646.156372 900.228577,648.039001 
	C885.374695,657.222046 869.964966,658.183228 853.803284,650.397583 
z"/>
<path fill="#000000" opacity="1.000000" stroke="none" 
	d="
M340.577026,645.486023 
	C342.146088,648.050049 343.520508,650.305420 345.471680,653.507202 
	C338.735748,654.343079 332.742493,654.484497 326.762482,653.501709 
	C325.065582,653.222900 324.484467,651.232239 323.622833,649.812378 
	C319.133698,642.414917 314.545807,635.076477 310.133240,627.633911 
	C308.565399,624.989441 306.491730,623.770386 303.534821,624.406433 
	C300.028992,625.160461 301.414276,628.111694 301.356384,630.162903 
	C301.177948,636.484680 301.200531,642.815552 301.304535,649.140320 
	C301.351440,651.993652 300.330505,653.151367 297.370239,653.589539 
	C284.268707,655.528809 283.771179,655.193054 283.792175,642.360229 
	C283.825928,621.715576 283.929138,601.070129 283.764404,580.426880 
	C283.729248,576.021362 285.176483,574.146973 289.535034,574.920288 
	C298.620178,576.532288 307.733704,574.234680 316.901703,575.466492 
	C328.739594,577.057007 335.928986,582.087585 338.476715,592.201538 
	C341.551239,604.406677 337.917053,614.779114 328.366089,621.067627 
	C327.957031,621.336914 327.563995,621.630615 326.456055,622.411621 
	C331.096649,629.997742 335.739502,637.587585 340.577026,645.486023 
M300.334076,597.595337 
	C300.354889,612.013062 300.355164,612.015442 312.300995,610.605164 
	C312.955505,610.527832 313.611633,610.403870 314.246063,610.226624 
	C319.484344,608.763245 322.546417,604.770203 322.374329,599.656189 
	C322.210358,594.784241 319.067230,590.966614 314.117889,589.628174 
	C304.753296,587.095581 300.360474,589.331787 300.334076,597.595337 
z"/>
<path fill="#000000" opacity="1.000000" stroke="none" 
	d="
M779.253906,653.374268 
	C775.198547,653.629639 771.543152,653.853699 767.885559,654.029480 
	C764.933533,654.171387 763.773438,652.735291 763.784668,649.781494 
	C763.874451,626.293213 763.899231,602.804565 763.888916,579.316040 
	C763.887573,576.260803 764.930908,574.224976 768.235107,574.923828 
	C777.330688,576.847656 786.452026,574.448975 795.607300,575.475525 
	C807.453125,576.803833 815.389160,581.904968 817.995667,591.376831 
	C821.496216,604.098083 818.018799,614.417419 807.969177,621.166870 
	C807.576233,621.430786 807.250916,621.795349 806.425476,622.530334 
	C812.523071,632.549866 818.634277,642.591797 825.337402,653.606445 
	C818.750122,654.293823 812.763062,654.419617 806.790955,653.542847 
	C805.088989,653.292908 804.534241,651.250183 803.671997,649.836731 
	C799.163147,642.445618 794.563721,635.108521 790.146606,627.663208 
	C788.583008,625.027649 786.557617,623.761230 783.577515,624.379883 
	C780.039612,625.114319 781.423584,628.060791 781.367310,630.113403 
	C781.198669,636.272583 781.369690,642.440369 781.264465,648.602295 
	C781.236023,650.266418 782.097839,652.412598 779.253906,653.374268 
M801.756409,599.601624 
	C800.868530,591.388123 796.531921,588.769836 784.728088,589.326355 
	C776.879211,589.696472 781.670532,595.774353 780.350952,599.090210 
	C780.179688,599.520569 780.315979,600.078186 780.329590,600.576355 
	C780.631897,611.612549 777.791504,610.969238 791.277649,610.605774 
	C797.858521,610.428467 801.061951,607.069885 801.756409,599.601624 
z"/>
<path fill="#000000" opacity="1.000000" stroke="none" 
	d="
M744.245728,599.000000 
	C744.251831,607.989624 744.041382,616.485901 744.302979,624.967590 
	C745.007324,647.799866 728.220459,655.808350 711.408142,655.704773 
	C706.938232,655.677246 702.496033,654.958191 698.212708,653.366577 
	C686.553528,649.034180 680.166809,640.335449 679.890381,626.931091 
	C679.564392,611.123291 679.819763,595.304260 679.671509,579.491516 
	C679.638977,576.017395 680.948120,574.761780 684.361938,574.827209 
	C699.976685,575.126404 697.107056,572.946533 697.296448,587.151978 
	C697.465088,599.801025 697.278381,612.454468 697.373413,625.104980 
	C697.450256,635.339050 703.174377,640.852356 713.270813,640.663086 
	C721.390076,640.510864 726.561523,635.769409 726.774109,627.143982 
	C727.147339,612.005310 726.990967,596.853394 727.042236,581.707031 
	C727.065063,574.945190 727.086975,574.859253 733.571045,574.895691 
	C745.414246,574.962219 744.163269,573.326904 744.248047,585.515930 
	C744.278137,589.843750 744.247437,594.171936 744.245728,599.000000 
z"/>
<path fill="#000000" opacity="1.000000" stroke="none" 
	d="
M447.875305,638.994263 
	C447.883423,619.351257 448.006012,600.206055 447.812439,581.064087 
	C447.765167,576.392029 449.085724,574.593628 454.007050,574.699890 
	C466.985382,574.980164 479.975861,574.891357 492.957825,574.700317 
	C497.105713,574.639282 498.479187,576.142029 498.371460,580.235901 
	C498.065613,591.859192 499.577301,590.172852 488.187653,590.302429 
	C481.862732,590.374451 475.535217,590.357971 469.210785,590.259277 
	C466.525238,590.217407 465.215210,591.158447 465.255371,594.004883 
	C465.475311,609.581543 463.392151,606.313477 476.770325,606.631714 
	C481.429047,606.742554 486.092560,606.727295 490.752716,606.670776 
	C493.268188,606.640259 494.345764,607.701599 494.342865,610.245483 
	C494.328186,623.109924 495.534058,621.229004 484.157410,621.158630 
	C478.046112,621.120850 471.934387,621.151978 465.291229,621.151978 
	C465.291229,625.999634 465.304840,630.789612 465.286041,635.579529 
	C465.274811,638.439270 467.172852,638.660767 469.345856,638.660583 
	C477.502838,638.659851 485.662750,638.833313 493.815491,638.657593 
	C497.750397,638.572754 499.550629,639.679626 499.416931,643.989136 
	C499.078735,654.889954 500.662292,654.051575 489.612640,654.066895 
	C477.793365,654.083252 465.973999,654.068359 454.154755,654.037231 
	C447.973969,654.020935 447.827484,653.839966 447.846588,647.484192 
	C447.854584,644.820557 447.864380,642.156921 447.875305,638.994263 
z"/>
<path fill="#000000" opacity="1.000000" stroke="none" 
	d="
M504.112366,760.327759 
	C500.536102,760.608459 499.622803,759.023071 499.631439,756.141052 
	C499.692932,735.667725 499.657654,715.194092 499.673157,694.720581 
	C499.674561,692.881287 499.567108,690.734436 502.269257,690.795654 
	C512.721741,691.032837 523.231323,689.574219 533.620239,691.641907 
	C541.667969,693.243530 547.356262,697.823792 549.134827,705.978699 
	C551.143677,715.188904 550.511169,724.078552 542.117126,730.285339 
	C539.252930,732.403137 539.149963,733.993408 540.924377,736.784180 
	C545.621216,744.171204 550.075012,751.712830 555.046692,759.885315 
	C549.090332,760.686584 543.849487,760.381836 538.632507,760.163025 
	C536.430847,760.070618 535.956421,757.880127 535.034546,756.380676 
	C531.114075,750.003784 527.194702,743.624390 523.411987,737.165649 
	C522.026062,734.799316 520.194946,733.911682 517.611023,734.484863 
	C514.800842,735.108215 515.398987,737.437561 515.371460,739.334229 
	C515.296631,744.493286 515.065552,749.670410 515.392273,754.808899 
	C515.680298,759.337952 513.823486,760.839661 509.585846,760.364380 
	C507.941925,760.180054 506.260132,760.333435 504.112366,760.327759 
M528.089722,704.118713 
	C516.624207,701.305420 515.269226,702.310486 515.250183,713.643127 
	C515.249634,713.975098 515.244995,714.307007 515.244629,714.638977 
	C515.235840,723.133179 515.778442,723.609802 524.306641,722.574951 
	C524.798950,722.515259 525.285645,722.405701 525.773499,722.312073 
	C530.228210,721.457092 533.588806,719.220337 534.327393,714.494080 
	C535.048096,709.881958 533.034851,706.467163 528.089722,704.118713 
z"/>
<path fill="#000000" opacity="1.000000" stroke="none" 
	d="
M586.518311,759.840027 
	C575.647339,755.373352 570.944214,747.205017 570.845459,736.189087 
	C570.724548,722.698364 570.922607,709.204407 570.742737,695.715027 
	C570.689209,691.704163 572.255981,690.548950 576.049011,690.617554 
	C588.287170,690.838928 586.214539,689.634155 586.332092,700.526367 
	C586.452576,711.684998 586.190186,722.849243 586.413330,734.004761 
	C586.624634,744.570557 593.360413,749.984802 602.991028,747.749817 
	C608.495544,746.472412 611.602112,742.526245 611.673950,735.965149 
	C611.816284,722.974731 611.909241,709.978210 611.648438,696.991760 
	C611.556824,692.431274 612.597534,690.587402 617.596436,690.422424 
	C628.481323,690.063232 627.313354,689.029114 627.341248,700.068848 
	C627.371155,711.894958 627.379578,723.721313 627.338501,735.547363 
	C627.277710,753.053833 613.031799,764.981384 595.595276,762.086426 
	C592.654419,761.598206 589.779968,760.710205 586.518311,759.840027 
z"/>
<path fill="#000000" opacity="1.000000" stroke="none" 
	d="
M326.396973,734.589600 
	C320.863068,732.220825 315.600311,730.138672 310.432770,727.842163 
	C299.672821,723.060364 295.052032,715.694946 296.971558,706.650635 
	C299.015503,697.019958 307.839081,690.114868 318.366577,689.619690 
	C327.625305,689.184021 335.954620,690.773254 341.848785,698.836792 
	C344.311279,702.205627 344.713348,704.425354 340.292175,707.039062 
	C335.794006,709.698303 332.923798,711.050476 329.410461,705.694397 
	C326.704193,701.568787 321.954987,700.941650 317.253784,702.497742 
	C314.570496,703.385925 312.647186,705.125427 312.381073,708.201477 
	C312.132568,711.073608 313.575867,713.059875 315.913055,714.300110 
	C318.402496,715.621277 321.042572,716.677124 323.668701,717.718018 
	C327.998413,719.434204 332.472046,720.804626 336.446259,723.334595 
	C347.109772,730.122864 349.267059,742.725830 341.457947,752.693848 
	C331.301849,765.657654 306.474579,764.930481 297.096466,751.394531 
	C293.759216,746.577698 293.874390,745.529602 298.574554,742.106201 
	C300.692596,740.563538 302.634125,738.632935 305.661774,738.066711 
	C306.581909,739.370422 307.520203,740.718079 308.477051,742.052368 
	C311.718842,746.572937 316.018951,748.894897 321.687805,748.689880 
	C325.483093,748.552551 328.773682,747.411560 330.188934,743.737061 
	C331.638611,739.973083 330.039215,736.927490 326.396973,734.589600 
z"/>
<path fill="#000000" opacity="1.000000" stroke="none" 
	d="
M438.038452,692.567017 
	C443.134552,700.973145 447.990509,709.055786 453.153748,717.649902 
	C457.826660,711.886658 460.510193,705.781067 463.725525,700.028503 
	C469.286530,690.079285 473.280487,688.371826 485.015045,691.471924 
	C485.482178,693.557922 483.873474,694.834839 482.972870,696.328064 
	C476.177002,707.595520 469.350037,718.844604 462.447632,730.046997 
	C460.899200,732.559998 460.236908,735.142212 460.295349,738.082275 
	C460.411224,743.912048 460.204010,749.748718 460.345703,755.577332 
	C460.425781,758.871643 459.432892,760.442139 455.823303,760.378113 
	C443.420868,760.158203 444.307495,761.587463 445.058197,749.952759 
	C445.847992,737.711914 443.054016,727.180298 435.773041,717.339294 
	C430.438873,710.129639 426.058258,702.213440 421.279633,694.595215 
	C420.692688,693.659424 420.272705,692.618958 419.307617,690.694275 
	C426.014984,691.381836 432.031067,688.909668 438.038452,692.567017 
z"/>
<path fill="#000000" opacity="1.000000" stroke="none" 
	d="
M361.155792,690.677673 
	C376.117737,690.667603 390.598969,690.811768 405.073914,690.573792 
	C409.415466,690.502502 410.871460,691.594238 410.519196,696.164307 
	C409.904510,704.139099 410.207214,704.149475 402.084381,704.144714 
	C390.723450,704.138000 392.478394,703.240051 392.338318,714.090454 
	C392.164398,727.567078 391.894165,741.045410 391.988586,754.520813 
	C392.020782,759.112244 390.447510,760.554443 385.896240,760.432007 
	C376.803497,760.187561 376.885895,760.416931 376.753601,751.146667 
	C376.554169,737.176025 376.994110,723.200806 376.198822,709.230103 
	C375.976349,705.321228 374.594299,703.889404 370.781403,704.113098 
	C367.300232,704.317322 363.795380,704.119019 360.300964,704.095520 
	C357.854156,704.079041 356.636169,702.903870 356.708130,700.398010 
	C356.765411,698.402771 356.796692,696.401001 356.703033,694.408630 
	C356.568512,691.547913 358.039398,690.529114 361.155792,690.677673 
z"/>
<path fill="#000000" opacity="1.000000" stroke="none" 
	d="
M212.344574,568.775146 
	C207.964752,566.244446 206.956238,562.569031 207.952591,558.344971 
	C208.752838,554.952332 211.231674,553.107605 214.701813,552.651245 
	C220.298752,551.915100 224.469986,555.096497 224.752533,560.321228 
	C225.062592,566.054626 221.476700,569.689087 215.592072,569.522522 
	C214.617737,569.494934 213.652344,569.151428 212.344574,568.775146 
z"/>
<path fill="#000000" opacity="1.000000" stroke="none" 
	d="
M244.713272,568.913574 
	C236.991547,571.715149 230.936203,564.813904 233.102707,558.852478 
	C234.537048,554.905762 237.289246,552.582764 241.738144,552.660156 
	C245.691284,552.728943 248.519653,554.487244 249.601791,558.287048 
	C250.908890,562.876892 249.100311,566.358154 244.713272,568.913574 
z"/>
</svg>